<?xml version="1.0" encoding="UTF-8" standalone="no"?>
<!DOCTYPE svg PUBLIC "-//W3C//DTD SVG 1.1//EN" "http://www.w3.org/Graphics/SVG/1.1/DTD/svg11.dtd">
<svg width="100%" height="100%" viewBox="0 0 61 37" version="1.1" xmlns="http://www.w3.org/2000/svg" xmlns:xlink="http://www.w3.org/1999/xlink" xml:space="preserve" xmlns:serif="http://www.serif.com/" style="fill-rule:evenodd;clip-rule:evenodd;stroke-linejoin:round;stroke-miterlimit:2;">
    <g transform="matrix(1,0,0,1,-10.136334,-20.538081)">
        <path d="M32.962,47.863L20.247,47.863L17.66,55.915C17.625,56.062 17.54,56.191 17.419,56.282C17.299,56.372 17.15,56.418 17,56.41L10.56,56.41C10.193,56.41 10.064,56.209 10.175,55.805L21.183,24.231C21.293,23.901 21.403,23.578 21.513,23.156C21.658,22.422 21.731,21.675 21.734,20.927C21.726,20.875 21.731,20.821 21.748,20.771C21.764,20.721 21.793,20.675 21.83,20.638C21.867,20.601 21.913,20.572 21.963,20.556C22.013,20.539 22.067,20.534 22.119,20.541L30.871,20.541C31.127,20.541 31.274,20.633 31.311,20.817L43.806,55.86C43.916,56.227 43.806,56.411 43.476,56.41L36.32,56.41C36.197,56.424 36.073,56.392 35.972,56.322C35.871,56.251 35.799,56.145 35.77,56.025L32.962,47.863ZM22.229,41.075L30.926,41.075C30.706,40.341 30.449,39.515 30.155,38.597C29.861,37.681 29.549,36.699 29.219,35.653C28.889,34.607 28.559,33.561 28.229,32.515C27.898,31.47 27.596,30.46 27.32,29.488C27.045,28.516 26.798,27.626 26.577,26.818L26.522,26.818C26.213,28.305 25.827,29.775 25.366,31.222C24.852,32.873 24.329,34.561 23.798,36.286C23.265,38.011 22.742,39.607 22.229,41.075Z" style="fill:currentColor;fill-rule:nonzero;"/>
        <path d="M64.062,44.73L53.218,44.73C53.351,45.802 53.708,46.836 54.264,47.762C54.88,48.68 55.75,49.397 56.769,49.826C58.149,50.423 59.641,50.716 61.145,50.684C62.337,50.661 63.526,50.531 64.695,50.294C65.741,50.153 66.766,49.886 67.747,49.498C67.93,49.352 68.023,49.444 68.023,49.774L68.023,55.003C68.032,55.145 68.003,55.288 67.94,55.416C67.877,55.516 67.792,55.6 67.692,55.663C66.603,56.146 65.457,56.487 64.282,56.679C62.685,56.979 61.063,57.117 59.438,57.092C56.832,57.092 54.649,56.688 52.888,55.881C51.224,55.148 49.754,54.036 48.595,52.633C47.513,51.312 46.708,49.787 46.228,48.148C45.753,46.53 45.512,44.852 45.513,43.166C45.507,41.325 45.795,39.495 46.366,37.744C46.915,36.037 47.783,34.449 48.925,33.066C50.051,31.698 51.459,30.591 53.053,29.818C54.668,29.03 56.576,28.747 58.778,28.747C60.604,28.701 62.417,29.058 64.089,29.792C65.496,30.392 66.733,31.327 67.695,32.515C68.597,33.679 69.286,34.993 69.731,36.396C70.165,37.748 70.388,39.159 70.392,40.579C70.392,41.387 70.364,42.121 70.309,42.781C70.254,43.441 70.208,43.918 70.172,44.212C70.157,44.333 70.099,44.445 70.008,44.526C69.916,44.608 69.798,44.652 69.676,44.652C69.456,44.652 69.08,44.68 68.548,44.735C68.016,44.79 67.355,44.827 66.566,44.845C65.777,44.864 64.943,44.73 64.062,44.73ZM53.218,39.715L60.429,39.715C61.31,39.715 61.961,39.706 62.383,39.688C62.665,39.66 62.938,39.569 63.181,39.423L63.181,39.093C63.17,38.662 63.096,38.236 62.961,37.827C62.664,36.888 62.067,36.072 61.262,35.505C60.456,34.939 59.487,34.652 58.503,34.69C57.576,34.633 56.654,34.848 55.847,35.308C55.041,35.767 54.386,36.451 53.962,37.276C53.584,38.044 53.334,38.868 53.218,39.715Z" style="fill:currentColor;fill-rule:nonzero;"/>
    </g>
</svg>
